<svg width="24" height="23" viewBox="0 0 24 23" fill="none" xmlns="http://www.w3.org/2000/svg">
<g filter="url(#filter0_i_490_1655)">
<path d="M11.9813 22.1656C18.0979 22.1656 23.0564 17.2036 23.0564 11.0828C23.0564 4.96193 18.0979 0 11.9813 0C5.86473 0 0.90625 4.96193 0.90625 11.0828C0.90625 17.2036 5.86473 22.1656 11.9813 22.1656Z" fill="white"/>
<path d="M17.323 6.09199C16.3206 5.63176 15.2458 5.29269 14.1219 5.09848C14.1014 5.09472 14.081 5.10407 14.0704 5.12281C13.9322 5.36885 13.7791 5.68984 13.6718 5.94212C12.4631 5.76103 11.2605 5.76103 10.0765 5.94212C9.96925 5.68421 9.81057 5.36885 9.67173 5.12281C9.66117 5.10472 9.64072 5.09534 9.62028 5.09848C8.49703 5.29206 7.42216 5.63114 6.41916 6.09199C6.41049 6.09575 6.40304 6.102 6.3981 6.11011C4.35929 9.15818 3.80076 12.1314 4.07476 15.0676C4.076 15.082 4.08405 15.0957 4.09521 15.1045C5.44037 16.093 6.74338 16.6931 8.0222 17.0909C8.04265 17.0972 8.06434 17.0897 8.07736 17.0728C8.37988 16.6594 8.64953 16.2236 8.88075 15.7652C8.89439 15.7383 8.88137 15.7065 8.85346 15.6958C8.42575 15.5335 8.01848 15.3355 7.62671 15.1107C7.59573 15.0926 7.59325 15.0483 7.62174 15.027C7.70418 14.9652 7.78664 14.9009 7.86538 14.8359C7.87961 14.8241 7.89947 14.8216 7.91622 14.8291C10.49 16.005 13.2764 16.005 15.8198 14.8291C15.8365 14.821 15.8564 14.8234 15.8712 14.8353C15.95 14.9003 16.0324 14.9652 16.1155 15.027C16.144 15.0483 16.1421 15.0926 16.1111 15.1107C15.7194 15.3399 15.3121 15.5335 14.8837 15.6952C14.8558 15.7058 14.8434 15.7383 14.8571 15.7652C15.0933 16.2229 15.3629 16.6588 15.6598 17.0722C15.6722 17.0897 15.6946 17.0972 15.715 17.0909C17 16.6931 18.303 16.093 19.6482 15.1045C19.66 15.0957 19.6674 15.0826 19.6687 15.0682C19.9966 11.6736 19.1194 8.72479 17.3434 6.11073C17.3391 6.102 17.3317 6.09575 17.323 6.09199ZM9.26508 13.2797C8.49022 13.2797 7.85174 12.5678 7.85174 11.6936C7.85174 10.8193 8.47782 10.1074 9.26508 10.1074C10.0585 10.1074 10.6908 10.8256 10.6784 11.6936C10.6784 12.5678 10.0523 13.2797 9.26508 13.2797ZM14.4907 13.2797C13.7159 13.2797 13.0774 12.5678 13.0774 11.6936C13.0774 10.8193 13.7035 10.1074 14.4907 10.1074C15.2842 10.1074 15.9165 10.8256 15.9041 11.6936C15.9041 12.5678 15.2842 13.2797 14.4907 13.2797Z" fill="#2C173E"/>
</g>
<defs>
<filter id="filter0_i_490_1655" x="0.90625" y="0" width="23.4803" height="23.4955" filterUnits="userSpaceOnUse" color-interpolation-filters="sRGB">
<feFlood flood-opacity="0" result="BackgroundImageFix"/>
<feBlend mode="normal" in="SourceGraphic" in2="BackgroundImageFix" result="shape"/>
<feColorMatrix in="SourceAlpha" type="matrix" values="0 0 0 0 0 0 0 0 0 0 0 0 0 0 0 0 0 0 127 0" result="hardAlpha"/>
<feOffset dx="1.32993" dy="1.32993"/>
<feGaussianBlur stdDeviation="2.21656"/>
<feComposite in2="hardAlpha" operator="arithmetic" k2="-1" k3="1"/>
<feColorMatrix type="matrix" values="0 0 0 0 0 0 0 0 0 0 0 0 0 0 0 0 0 0 0.18 0"/>
<feBlend mode="normal" in2="shape" result="effect1_innerShadow_490_1655"/>
</filter>
</defs>
</svg>
