<svg width="24" height="23" viewBox="0 0 24 23" fill="none" xmlns="http://www.w3.org/2000/svg">
<g filter="url(#filter0_i_490_1659)">
<path d="M12.0087 0C5.88968 0 0.933594 5.08838 0.933594 11.364C0.933594 16.3859 4.1066 20.6445 8.50617 22.1459C9.05993 22.2529 9.26298 21.9012 9.26298 21.5995C9.26298 21.3297 9.25375 20.6146 9.24914 19.6673C6.16843 20.3525 5.51868 18.1427 5.51868 18.1427C5.01476 16.8311 4.28659 16.4803 4.28659 16.4803C3.28337 15.7759 4.36411 15.7903 4.36411 15.7903C5.47623 15.8694 6.06043 16.9612 6.06043 16.9612C7.04795 18.6988 8.65291 18.1967 9.28606 17.9066C9.38572 17.1713 9.6709 16.6711 9.98746 16.3868C7.52789 16.1026 4.94278 15.1254 4.94278 10.7713C4.94278 9.53105 5.37193 8.51724 6.08257 7.72217C5.958 7.43501 5.5842 6.27953 6.1795 4.71446C6.1795 4.71446 7.10703 4.40991 9.22514 5.87957C10.1111 5.62709 11.0525 5.50181 11.9939 5.49602C12.9353 5.50181 13.8767 5.62709 14.7627 5.87957C16.8669 4.40991 17.7945 4.71446 17.7945 4.71446C18.3898 6.27953 18.016 7.43501 17.9052 7.72217C18.6113 8.51724 19.0404 9.53105 19.0404 10.7713C19.0404 15.1369 16.4516 16.0977 13.9874 16.3772C14.3751 16.7184 14.735 17.4151 14.735 18.48C14.735 20.0008 14.7212 21.2227 14.7212 21.5918C14.7212 21.8896 14.9149 22.2452 15.4825 22.1315C19.9135 20.6397 23.0838 16.3782 23.0838 11.364C23.0838 5.08838 18.1249 0 12.0087 0Z" fill="white"/>
</g>
<defs>
<filter id="filter0_i_490_1659" x="0.933594" y="0" width="23.4803" height="23.4955" filterUnits="userSpaceOnUse" color-interpolation-filters="sRGB">
<feFlood flood-opacity="0" result="BackgroundImageFix"/>
<feBlend mode="normal" in="SourceGraphic" in2="BackgroundImageFix" result="shape"/>
<feColorMatrix in="SourceAlpha" type="matrix" values="0 0 0 0 0 0 0 0 0 0 0 0 0 0 0 0 0 0 127 0" result="hardAlpha"/>
<feOffset dx="1.32993" dy="1.32993"/>
<feGaussianBlur stdDeviation="2.21656"/>
<feComposite in2="hardAlpha" operator="arithmetic" k2="-1" k3="1"/>
<feColorMatrix type="matrix" values="0 0 0 0 0 0 0 0 0 0 0 0 0 0 0 0 0 0 0.18 0"/>
<feBlend mode="normal" in2="shape" result="effect1_innerShadow_490_1659"/>
</filter>
</defs>
</svg>
