<svg width="42" height="43" viewBox="0 0 42 43" fill="none" xmlns="http://www.w3.org/2000/svg">
<g clip-path="url(#clip0_6_717)">
<path d="M42.6367 7.51465e-08L0.0209961 0L0.0209962 42.4979L42.6367 42.4979L42.6367 7.51465e-08Z" fill="white"/>
<path d="M10.1907 14.2136C10.2263 13.8631 10.0923 13.5167 9.82988 13.2808L7.15677 10.0695L7.15677 9.58984L15.4568 9.58984L21.8722 23.6209L27.5125 9.58984L35.4249 9.58984L35.4249 10.0695L33.1394 12.2548C32.9423 12.4046 32.8446 12.6508 32.8854 12.8944L32.8854 28.9508C32.8446 29.1945 32.9423 29.4407 33.1394 29.5904L35.3714 31.7757L35.3714 32.2554L24.1444 32.2554L24.1444 31.7757L26.4566 29.5371C26.6838 29.3106 26.6838 29.244 26.6838 28.8976L26.6838 15.9191L20.255 32.2021L19.3862 32.2021L11.9015 15.9191L11.9015 26.8322C11.8391 27.291 11.9919 27.7529 12.3159 28.0847L15.3231 31.7224L15.3231 32.2021L6.7959 32.2021L6.7959 31.7224L9.80314 28.0847C10.1247 27.7524 10.2686 27.2874 10.1907 26.8322L10.1907 14.2136Z" fill="#0D3F65"/>
</g>
<defs>
<clipPath id="clip0_6_717">
<rect x="0.348145" width="41.2446" height="42.4979" rx="20.6223" fill="white"/>
</clipPath>
</defs>
</svg>
