<svg width="43" height="43" viewBox="0 0 43 43" fill="none" xmlns="http://www.w3.org/2000/svg">
<path d="M21.5447 42.4979C32.9341 42.4979 42.167 32.9844 42.167 21.249C42.167 9.51349 32.9341 6.57946e-08 21.5447 4.23857e-08C10.1553 1.89767e-08 0.922363 9.51349 0.922363 21.249C0.922363 32.9844 10.1553 42.4979 21.5447 42.4979Z" fill="white"/>
<path d="M35.3019 21.2495C35.3019 19.5253 33.9487 18.156 32.2997 18.156C31.4877 18.156 30.7492 18.4855 30.2079 19.0181C28.141 17.4967 25.3107 16.5079 22.1607 16.3812L23.5387 9.73764L28.0176 10.7264C28.0671 11.8929 29.002 12.8311 30.1589 12.8311C31.34 12.8311 32.2997 11.8424 32.2997 10.6248C32.2997 9.40773 31.34 8.41895 30.1589 8.41895C29.3222 8.41895 28.5836 8.9261 28.2391 9.66154L23.2438 8.57114C23.0961 8.54562 22.9484 8.57114 22.8497 8.64724C22.7268 8.72333 22.6529 8.85 22.6286 9.0022L21.1025 16.4063C17.9034 16.5079 15.0241 17.4967 12.9324 19.0437C12.369 18.4892 11.6197 18.1804 10.8406 18.1815C9.16727 18.1815 7.83838 19.5759 7.83838 21.2751C7.83838 22.5427 8.57645 23.6076 9.61038 24.0897C9.56084 24.3936 9.53653 24.698 9.53653 25.0279C9.53653 29.7946 14.9259 33.6746 21.5704 33.6746C28.2148 33.6746 33.6042 29.8201 33.6042 25.0279C33.6042 24.7235 33.5795 24.3936 33.5304 24.0897C34.5639 23.6076 35.3019 22.5172 35.3019 21.2495ZM14.6796 23.4554C14.6796 22.2383 15.6392 21.2495 16.8209 21.2495C18.0021 21.2495 18.9617 22.2383 18.9617 23.4554C18.9617 24.6725 18.0021 25.6617 16.8209 25.6617C15.6392 25.6868 14.6796 24.6725 14.6796 23.4554ZM26.6644 29.3129C25.1878 30.8344 22.3823 30.936 21.5704 30.936C20.7337 30.936 17.9282 30.8089 16.4759 29.3129C16.2548 29.0847 16.2548 28.7297 16.4759 28.5014C16.6975 28.2736 17.042 28.2736 17.2635 28.5014C18.1989 29.4651 20.1676 29.7946 21.5704 29.7946C22.9731 29.7946 24.9662 29.4651 25.8768 28.5014C26.0983 28.2736 26.4428 28.2736 26.6644 28.5014C26.8612 28.7297 26.8612 29.0847 26.6644 29.3129ZM26.2704 25.6868C25.0892 25.6868 24.1295 24.698 24.1295 23.4809C24.1295 22.2638 25.0892 21.2751 26.2704 21.2751C27.452 21.2751 28.4116 22.2638 28.4116 23.4809C28.4116 24.6725 27.452 25.6868 26.2704 25.6868Z" fill="#0C3659"/>
</svg>
