<svg width="43" height="43" viewBox="0 0 43 43" fill="none" xmlns="http://www.w3.org/2000/svg">
<path d="M16.3125 39.9234C15.0836 39.9234 15.2925 39.3534 14.8687 37.9159L11.2554 23.3074L39.0694 3.03613" fill="#00203C"/>
<path d="M16.313 39.9248C17.2612 39.9248 17.68 39.392 18.2094 38.7599L23.2665 32.7189L16.9584 28.0459" fill="#104569"/>
<path d="M16.9577 28.046L32.2427 41.9191C33.9871 43.1014 35.2457 42.4891 35.6803 39.9299L41.9021 3.91122C42.539 0.773863 40.9286 -0.649597 39.2598 0.281127L2.7254 17.5875C0.23162 18.8164 0.246475 20.5256 2.27089 21.2871L11.6464 24.8822L33.3518 8.05968C34.3765 7.2963 35.3171 7.70634 34.5453 8.54814" fill="white"/>
</svg>
