<svg width="24" height="23" viewBox="0 0 24 23" fill="none" xmlns="http://www.w3.org/2000/svg">
<g filter="url(#filter0_i_490_1669)">
<path d="M11.9559 22.1656C18.0725 22.1656 23.031 17.2036 23.031 11.0828C23.031 4.96194 18.0725 0 11.9559 0C5.83935 0 0.880859 4.96194 0.880859 11.0828C0.880859 17.2036 5.83935 22.1656 11.9559 22.1656Z" fill="white"/>
<path d="M18.7392 7.96493C18.2645 8.17553 17.754 8.31797 17.2186 8.38158C17.7653 8.05381 18.1848 7.53522 18.3828 6.91627C17.8713 7.21991 17.3045 7.4402 16.7017 7.55893C16.2188 7.0443 15.5308 6.72266 14.769 6.72266C13.3072 6.72266 12.1217 7.909 12.1217 9.37176C12.1217 9.5794 12.1452 9.78149 12.1906 9.9755C9.99054 9.86506 8.03979 8.81047 6.73402 7.20728C6.50619 7.59844 6.37549 8.05381 6.37549 8.53922C6.37549 9.45807 6.8432 10.2693 7.55313 10.7442C7.1194 10.7306 6.71091 10.6114 6.35417 10.4125C6.35397 10.4238 6.35397 10.435 6.35397 10.4461C6.35397 11.7296 7.26687 12.8002 8.47767 13.0434C8.25578 13.1043 8.02143 13.1365 7.78036 13.1365C7.60939 13.1365 7.44375 13.1201 7.28227 13.0893C7.61907 14.1415 8.59651 14.9074 9.7552 14.9289C8.84902 15.6396 7.70772 16.0629 6.46711 16.0629C6.25388 16.0629 6.04264 16.0505 5.83594 16.0258C7.00686 16.7777 8.39871 17.2161 9.89358 17.2161C14.7629 17.2161 17.4257 13.1795 17.4257 9.67857C17.4257 9.56377 17.4231 9.4494 17.418 9.33598C17.9356 8.9626 18.3844 8.49615 18.7392 7.96493Z" fill="#2C183F"/>
</g>
<defs>
<filter id="filter0_i_490_1669" x="0.880859" y="0" width="23.4803" height="23.4955" filterUnits="userSpaceOnUse" color-interpolation-filters="sRGB">
<feFlood flood-opacity="0" result="BackgroundImageFix"/>
<feBlend mode="normal" in="SourceGraphic" in2="BackgroundImageFix" result="shape"/>
<feColorMatrix in="SourceAlpha" type="matrix" values="0 0 0 0 0 0 0 0 0 0 0 0 0 0 0 0 0 0 127 0" result="hardAlpha"/>
<feOffset dx="1.32993" dy="1.32993"/>
<feGaussianBlur stdDeviation="2.21656"/>
<feComposite in2="hardAlpha" operator="arithmetic" k2="-1" k3="1"/>
<feColorMatrix type="matrix" values="0 0 0 0 0 0 0 0 0 0 0 0 0 0 0 0 0 0 0.18 0"/>
<feBlend mode="normal" in2="shape" result="effect1_innerShadow_490_1669"/>
</filter>
</defs>
</svg>
